<svg xmlns="http://www.w3.org/2000/svg" xmlns:xlink="http://www.w3.org/1999/xlink" width="500" zoomAndPan="magnify" viewBox="0 0 375 374.999991" height="500" preserveAspectRatio="xMidYMid meet" version="1.0"><defs><g/></defs><path fill="#9c5884" d="M 318.976562 195.054688 C 316.917969 199.347656 313.015625 202.996094 309.042969 204.335938 C 307.394531 204.894531 306.511719 206.683594 307.066406 208.332031 C 307.511719 209.648438 308.734375 210.476562 310.046875 210.476562 C 310.382812 210.476562 310.726562 210.429688 311.054688 210.3125 C 312.113281 209.953125 313.144531 209.46875 314.15625 208.917969 C 302.6875 226.695312 271.234375 249.863281 241.171875 266.128906 C 214.277344 280.691406 158.222656 301.195312 118.753906 285.726562 C 102.039062 279.179688 90.441406 266.679688 84.261719 248.574219 C 83.835938 247.332031 84.550781 246.535156 84.878906 246.25 C 85.199219 245.96875 86.050781 245.371094 87.207031 245.945312 C 117.179688 260.769531 173.222656 252.613281 204.792969 228.839844 C 237.667969 204.078125 244.960938 171.035156 251.398438 141.890625 C 252.007812 139.136719 252.605469 136.410156 253.21875 133.710938 C 254.132812 129.742188 257.347656 128.480469 260.136719 128.964844 C 263.121094 129.488281 266.351562 132.191406 265.621094 138.054688 C 264.800781 144.566406 265.320312 159.40625 270.214844 165.84375 C 273.300781 169.902344 276.890625 171.253906 281.878906 170.253906 C 289.792969 168.667969 302.382812 161.507812 307.363281 158.035156 C 310.003906 156.1875 312.980469 157.34375 314.761719 159.308594 C 316.632812 161.359375 317.773438 165.007812 314.820312 168.496094 C 310.660156 173.40625 306.082031 175.582031 301.234375 177.875 C 300.300781 178.328125 299.359375 178.769531 298.421875 179.230469 C 296.871094 180 296.234375 181.898438 297.003906 183.460938 C 297.773438 185.019531 299.667969 185.660156 301.226562 184.878906 C 302.128906 184.4375 303.03125 184.007812 303.933594 183.574219 C 308.996094 181.175781 314.230469 178.664062 319.117188 173.128906 C 319.90625 175.253906 320.019531 177.316406 319.453125 179.335938 C 317.789062 185.25 310.703125 189.972656 304.632812 192.417969 C 303.015625 193.074219 302.238281 194.90625 302.886719 196.523438 C 303.386719 197.757812 304.566406 198.503906 305.8125 198.503906 C 306.199219 198.503906 306.601562 198.421875 306.984375 198.265625 C 309.464844 197.273438 315.867188 194.355469 320.59375 189.347656 C 320.347656 191.628906 319.699219 193.566406 318.976562 195.054688 Z M 305.773438 248.574219 C 299.597656 266.679688 287.988281 279.179688 271.28125 285.726562 C 251.992188 293.289062 228.730469 292.238281 206.855469 287.5 C 221.585938 282.671875 234.660156 276.832031 244.164062 271.683594 C 253.1875 266.804688 264.054688 260.316406 274.867188 252.976562 C 285.355469 252.105469 294.996094 249.820312 302.828125 245.945312 C 303.976562 245.371094 304.835938 245.96875 305.15625 246.25 C 305.484375 246.535156 306.191406 247.332031 305.773438 248.574219 Z M 75.898438 208.925781 C 76.90625 209.46875 77.929688 209.960938 78.980469 210.3125 C 79.308594 210.429688 79.652344 210.476562 79.988281 210.476562 C 81.300781 210.476562 82.523438 209.648438 82.96875 208.332031 C 83.523438 206.683594 82.640625 204.894531 80.992188 204.335938 C 77.019531 202.996094 73.117188 199.347656 71.050781 195.054688 C 70.335938 193.558594 69.671875 191.621094 69.425781 189.332031 C 74.160156 194.347656 80.574219 197.273438 83.050781 198.265625 C 83.433594 198.421875 83.828125 198.503906 84.222656 198.503906 C 85.476562 198.503906 86.648438 197.757812 87.152344 196.523438 C 87.796875 194.90625 87.019531 193.074219 85.402344 192.417969 C 79.335938 189.972656 72.246094 185.25 70.582031 179.335938 C 70.015625 177.316406 70.132812 175.253906 70.917969 173.121094 C 75.808594 178.664062 81.039062 181.175781 86.101562 183.574219 C 87.003906 184.007812 87.90625 184.4375 88.808594 184.878906 C 90.367188 185.652344 92.253906 185.019531 93.03125 183.460938 C 93.800781 181.898438 93.164062 180 91.613281 179.230469 C 90.675781 178.769531 89.734375 178.328125 88.800781 177.875 C 83.953125 175.582031 79.375 173.40625 75.226562 168.496094 C 72.265625 165.007812 73.402344 161.359375 75.273438 159.308594 C 77.054688 157.34375 80.03125 156.1875 82.671875 158.035156 C 87.652344 161.507812 100.242188 168.667969 108.15625 170.253906 C 113.152344 171.253906 116.734375 169.902344 119.820312 165.84375 C 124.714844 159.40625 125.234375 144.566406 124.414062 138.054688 C 123.683594 132.191406 126.914062 129.488281 129.902344 128.964844 C 132.699219 128.480469 135.90625 129.742188 136.816406 133.710938 C 137.429688 136.410156 138.027344 139.136719 138.636719 141.890625 C 145.074219 171.035156 152.367188 204.078125 185.242188 228.839844 C 186.445312 229.75 187.710938 230.628906 188.988281 231.492188 C 166.972656 243.5 139.71875 248.375 117.425781 246.824219 C 99.085938 234.144531 83.3125 220.414062 75.898438 208.925781 Z M 325.769531 179.878906 C 326.6875 175.410156 325.652344 170.878906 322.675781 166.363281 C 323.511719 162.035156 321.945312 157.835938 319.421875 155.0625 C 317.378906 152.8125 314.84375 151.464844 312.226562 150.996094 C 300.816406 126.796875 278.703125 111.070312 252.113281 111.070312 C 231.238281 111.070312 211.25 120.628906 197.304688 137.308594 C 196.109375 138.753906 193.925781 138.753906 192.730469 137.308594 C 178.785156 120.628906 158.796875 111.070312 137.921875 111.070312 C 111.3125 111.070312 89.210938 126.796875 77.800781 150.996094 C 75.183594 151.464844 72.65625 152.8125 70.613281 155.0625 C 68.089844 157.835938 66.523438 162.035156 67.359375 166.363281 C 64.390625 170.878906 63.347656 175.410156 64.265625 179.878906 C 61.9375 187.105469 63.296875 193.101562 65.078125 197.097656 C 65.21875 202.945312 68.179688 209.3125 72.976562 215.824219 C 75.003906 223.960938 77.941406 232.453125 81.65625 240.804688 C 81.328125 241.019531 81.015625 241.246094 80.71875 241.503906 C 78.136719 243.777344 77.191406 247.351562 78.300781 250.617188 C 85.109375 270.558594 97.945312 284.34375 116.457031 291.605469 C 118.785156 292.515625 121.179688 293.289062 123.609375 293.976562 C 154.6875 319.015625 180.148438 326.375 190.5 328.46875 C 192.015625 328.757812 193.523438 328.90625 195.019531 328.90625 C 196.527344 328.90625 198.042969 328.757812 199.539062 328.46875 C 209.921875 326.367188 235.371094 319.015625 266.457031 293.96875 C 268.871094 293.28125 271.257812 292.507812 273.578125 291.605469 C 292.089844 284.34375 304.933594 270.558594 311.734375 250.609375 C 312.84375 247.351562 311.890625 243.777344 309.316406 241.503906 C 309.019531 241.246094 308.714844 241.027344 308.40625 240.820312 C 312.097656 232.492188 314.957031 224.035156 316.992188 215.921875 C 321.832031 209.375 324.816406 202.980469 324.957031 197.097656 C 326.738281 193.101562 328.097656 187.105469 325.769531 179.878906 " fill-opacity="1" fill-rule="nonzero"/><g fill="#945a93" fill-opacity="1"><g transform="translate(23.846068, 174.319515)"><g><path d="M 2.796875 -20.359375 L -1.25 -11.375 L 3.546875 -6.984375 L 0.515625 -0.25 L -20.15625 -20.546875 L -16.671875 -28.296875 L 12.375 -26.65625 L 9.234375 -19.640625 Z M -2.078125 -20.890625 L -12.953125 -22.09375 L -4.859375 -14.6875 Z M -2.078125 -20.890625 "/></g></g></g><g fill="#945a93" fill-opacity="1"><g transform="translate(39.014749, 142.303635)"><g><path d="M -3.40625 -30.015625 L 20.890625 -13.21875 L 10.34375 2.046875 L 4.1875 0.046875 L 7.875 -5.296875 L 9.734375 -4.734375 L 13.71875 -10.5 L 9.5625 -13.359375 L 1.546875 -1.765625 L -15.015625 -13.21875 Z M 5.828125 -15.953125 L -3.078125 -22.09375 L -7.609375 -15.53125 L 1.296875 -9.390625 Z M 5.828125 -15.953125 "/></g></g></g><g fill="#945a93" fill-opacity="1"><g transform="translate(56.914637, 117.23321)"><g><path d="M 12.6875 -20.765625 L 16.046875 -15.640625 L 1.671875 -1 L -12.890625 -15.3125 L 2.046875 -30.53125 L 10.578125 -22.140625 L 0.296875 -11.671875 L 3.453125 -8.578125 L 9.5625 -14.796875 L 8.578125 -16.578125 Z M -5.34375 -17.21875 L -2.59375 -14.53125 L 3.1875 -20.421875 L 0.4375 -23.109375 Z M -5.34375 -17.21875 "/></g></g></g><g fill="#945a93" fill-opacity="1"><g transform="translate(79.618104, 95.273806)"><g><path d="M 2.171875 -1.03125 L -15.265625 -24.109375 L -10.078125 -28.03125 L 4.21875 -9.109375 L 7.703125 -11.734375 L 10.84375 -7.578125 Z M 2.171875 -1.03125 "/></g></g></g><g fill="#945a93" fill-opacity="1"><g transform="translate(96.917459, 82.296531)"><g><path d="M 18.15625 -16.1875 L 19.890625 -10.328125 L 1.890625 -0.484375 L -7.90625 -18.40625 L 10.8125 -28.625 L 16.546875 -18.125 L 3.65625 -11.09375 L 5.78125 -7.203125 L 13.4375 -11.375 L 13 -13.375 Z M -0.125 -18.03125 L 1.71875 -14.65625 L 8.96875 -18.609375 L 7.125 -21.984375 Z M -0.125 -18.03125 "/></g></g></g><g fill="#945a93" fill-opacity="1"><g transform="translate(124.692805, 67.757383)"><g><path d="M 3.140625 -17.984375 L 4.46875 -14.125 L 17.359375 -18.5625 L 21.359375 -6.921875 L 2.78125 -0.53125 L -0.421875 -5.640625 L 5.375 -7.625 L 6.515625 -6.0625 L 13.53125 -8.484375 L 12.15625 -12.46875 L -0.625 -8.0625 L -4.59375 -19.609375 L 14.4375 -26.15625 L 16.203125 -20.984375 L 10.03125 -18.859375 L 9.578125 -20.1875 Z M 3.140625 -17.984375 "/></g></g></g><g fill="#945a93" fill-opacity="1"><g transform="translate(152.936741, 58.545421)"><g><path d="M 6.046875 -17.234375 L 6.71875 -13.1875 L 20.15625 -15.453125 L 22.203125 -3.328125 L 2.828125 -0.0625 L 0.515625 -5.625 L 6.546875 -6.65625 L 7.40625 -4.9375 L 14.71875 -6.171875 L 14.03125 -10.3125 L 0.703125 -8.0625 L -1.328125 -20.109375 L 18.515625 -23.453125 L 19.421875 -18.0625 L 12.984375 -16.96875 L 12.75 -18.359375 Z M 6.046875 -17.234375 "/></g></g></g><g fill="#945a93" fill-opacity="1"><g transform="translate(182.362738, 54.127494)"><g/></g></g><g fill="#945a93" fill-opacity="1"><g transform="translate(210.113466, 53.848074)"><g><path d="M 5.265625 -26.15625 L 11.59375 -25 L 12 -8.984375 L 17.828125 -23.859375 L 25.6875 -22.421875 L 26.234375 -6.5625 L 32.453125 -21.265625 L 38.703125 -20.125 L 27.828125 5.609375 L 20.125 4.203125 L 19.484375 -10.515625 L 13.59375 3 L 5.984375 1.609375 Z M 5.265625 -26.15625 "/></g></g></g><g fill="#945a93" fill-opacity="1"><g transform="translate(249.935978, 62.594314)"><g><path d="M 9.234375 -20.703125 L 11.171875 -26.21875 L 17.234375 -24.078125 L 15.296875 -18.5625 Z M 1.59375 1.015625 L 8.328125 -18.125 L 14.390625 -15.984375 L 7.65625 3.15625 Z M 1.59375 1.015625 "/></g></g></g><g fill="#945a93" fill-opacity="1"><g transform="translate(265.405943, 67.993813)"><g><path d="M 15.078125 -10.3125 L 13.234375 -6.65625 L 25.390625 -0.515625 L 19.859375 10.46875 L 2.328125 1.625 L 3.75 -4.25 L 9.21875 -1.484375 L 8.875 0.421875 L 15.515625 3.765625 L 17.40625 0.015625 L 5.328125 -6.0625 L 10.828125 -16.984375 L 28.796875 -7.9375 L 26.34375 -3.046875 L 20.515625 -5.984375 L 21.140625 -7.25 Z M 15.078125 -10.3125 "/></g></g></g><g fill="#945a93" fill-opacity="1"><g transform="translate(291.705341, 81.715461)"><g><path d="M 35.90625 -8.984375 L 18.703125 14.34375 L 1.34375 1.546875 L 13.375 -14.765625 L 25.703125 -5.671875 L 30.875 -12.6875 Z M 16.53125 6.765625 L 22.828125 -1.78125 L 15.5 -7.1875 L 9.203125 1.359375 Z M 16.53125 6.765625 "/></g></g></g><g fill="#945a93" fill-opacity="1"><g transform="translate(316.577429, 100.711547)"><g><path d="M 0.78125 1.5 L 15.484375 -12.625 L 30.21875 2.71875 L 15.515625 16.84375 Z M 22.046875 1.25 L 16.359375 -4.65625 L 8.546875 2.84375 L 14.234375 8.75 Z M 22.046875 1.25 "/></g></g></g><g fill="#945a93" fill-opacity="1"><g transform="translate(337.290615, 122.59381)"><g><path d="M 12.09375 19.3125 L 25.03125 10.828125 L 22.84375 7.5 L 9.90625 15.984375 L 6.328125 10.515625 L 19.265625 2.03125 L 17.0625 -1.3125 L 4.125 7.171875 L 0.609375 1.8125 L 17.6875 -9.390625 L 32.734375 13.546875 L 15.65625 24.75 Z M 12.09375 19.3125 "/></g></g></g><g fill="#945a93" fill-opacity="1"><g transform="translate(356.688569, 153.808434)"><g/></g></g><g fill="#aa627f" fill-opacity="1"><g transform="translate(22.508932, 212.473285)"><g><path d="M 1.128906 5.652344 L 1.804688 9.050781 L 11.527344 9.621094 C 13.265625 9.734375 14.957031 9.761719 16.777344 9.792969 L 16.808594 9.953125 C 15.144531 10.714844 13.621094 11.347656 12.089844 12.117188 L 3.289062 16.480469 L 3.984375 19.972656 L 22.152344 21.171875 L 21.605469 18.4375 L 11.128906 17.886719 C 9.402344 17.835938 7.78125 17.828125 6.085938 17.769531 L 6.0625 17.644531 C 7.597656 16.90625 9.078125 16.214844 10.648438 15.472656 L 20.078125 10.785156 L 19.515625 7.960938 L 9.011719 7.28125 C 7.304688 7.160156 5.648438 7.128906 3.953125 7.070312 L 3.921875 6.910156 C 5.476562 6.269531 6.964844 5.609375 8.542969 4.933594 L 18.003906 0.371094 L 17.414062 -2.582031 Z M 1.128906 5.652344 "/></g></g></g><g fill="#aa627f" fill-opacity="1"><g transform="translate(29.07166, 242.12201)"><g><path d="M 3.042969 9.609375 C 3.859375 11.859375 5.261719 13.351562 6.734375 14.46875 L 8.195312 12.800781 C 6.933594 11.882812 5.96875 10.75 5.382812 9.136719 C 4.246094 6.003906 5.714844 3.023438 9.179688 1.558594 L 13.222656 12.699219 C 13.640625 12.617188 14.242188 12.464844 14.847656 12.246094 C 19.566406 10.53125 21.75 7.054688 20.222656 2.851562 C 18.832031 -0.980469 14.167969 -3.386719 8.8125 -1.441406 C 3.363281 0.535156 1.449219 5.226562 3.042969 9.609375 Z M 11.175781 0.800781 C 14.523438 -0.0390625 17.160156 1.347656 18.011719 3.691406 C 18.953125 6.277344 17.707031 8.453125 14.390625 9.65625 Z M 11.175781 0.800781 "/></g></g></g><g fill="#aa627f" fill-opacity="1"><g transform="translate(36.835947, 262.276614)"><g/></g></g><g fill="#aa627f" fill-opacity="1"><g transform="translate(41.442967, 271.933929)"><g><path d="M 3.847656 7.609375 C 4.375 8.539062 5.234375 9.390625 6.011719 10.101562 L 7.636719 8.507812 C 7.152344 8.113281 6.554688 7.519531 6.25 6.988281 C 5.242188 5.214844 5.972656 4.015625 7.859375 2.941406 L 16.386719 -1.914062 L 18.738281 2.222656 L 20.820312 1.039062 L 18.46875 -3.097656 L 22.773438 -5.546875 L 21.554688 -7.6875 L 17.074219 -5.546875 L 15.570312 -7.859375 L 13.628906 -6.753906 L 14.925781 -4.472656 L 6.457031 0.347656 C 3.417969 2.078125 1.988281 4.34375 3.847656 7.609375 Z M 3.847656 7.609375 "/></g></g></g><g fill="#aa627f" fill-opacity="1"><g transform="translate(49.422932, 285.644214)"><g><path d="M 1.707031 2.441406 L 3.394531 4.859375 L 12.65625 -1.613281 C 15.792969 -2.378906 17.679688 -1.488281 18.515625 -0.292969 C 18.921875 0.292969 19.109375 0.671875 19.257812 1.28125 L 21.699219 0.25 C 21.621094 -0.367188 21.386719 -0.875 20.941406 -1.511719 C 19.808594 -3.132812 17.621094 -3.777344 15.085938 -3.507812 L 15.03125 -3.585938 L 17.511719 -5.632812 L 16.121094 -7.625 Z M 1.707031 2.441406 "/></g></g></g><g fill="#aa627f" fill-opacity="1"><g transform="translate(58.901515, 299.175302)"><g><path d="M 5.050781 6.339844 C 6.660156 8.15625 8.765625 8.628906 11.292969 8.597656 L 11.355469 8.671875 L 9.445312 10.664062 L 11.078125 12.507812 L 24.238281 0.851562 L 22.285156 -1.355469 L 12.953125 6.910156 C 10.261719 7.042969 8.769531 6.679688 7.566406 5.320312 C 6.023438 3.578125 6.421875 1.925781 8.867188 -0.242188 L 16.941406 -7.390625 L 14.988281 -9.597656 L 6.648438 -2.210938 C 3.304688 0.75 2.605469 3.574219 5.050781 6.339844 Z M 5.050781 6.339844 "/></g></g></g><g fill="#aa627f" fill-opacity="1"><g transform="translate(74.902547, 316.65339)"><g><path d="M 5.402344 5.328125 C 8.511719 8.070312 11.777344 7.792969 13.660156 5.65625 C 15.867188 3.15625 14.4375 0.515625 13.164062 -1.90625 C 12.175781 -3.769531 11.222656 -5.429688 12.335938 -6.691406 C 13.234375 -7.714844 14.78125 -7.902344 16.457031 -6.425781 C 17.625 -5.394531 18.117188 -4.097656 18.417969 -2.625 L 20.75 -3.113281 C 20.4375 -4.816406 19.601562 -6.757812 17.976562 -8.195312 C 15.109375 -10.722656 11.953125 -10.570312 10.113281 -8.480469 C 8.140625 -6.246094 9.363281 -3.570312 10.609375 -1.261719 C 11.574219 0.582031 12.617188 2.535156 11.417969 3.894531 C 10.410156 5.035156 8.746094 5.210938 6.996094 3.667969 C 5.417969 2.273438 4.785156 0.59375 4.457031 -1.335938 L 2.082031 -0.839844 C 2.421875 1.316406 3.535156 3.679688 5.402344 5.328125 Z M 5.402344 5.328125 "/></g></g></g><g fill="#aa627f" fill-opacity="1"><g transform="translate(89.254007, 328.95707)"><g><path d="M 6.671875 5.308594 C 7.539062 5.929688 8.675781 6.347656 9.679688 6.667969 L 10.492188 4.539062 C 9.886719 4.386719 9.097656 4.097656 8.597656 3.738281 C 6.9375 2.550781 7.105469 1.152344 8.367188 -0.609375 L 14.089844 -8.578125 L 17.957031 -5.804688 L 19.351562 -7.75 L 15.488281 -10.527344 L 18.375 -14.550781 L 16.375 -15.984375 L 13.199219 -12.167969 L 10.867188 -13.640625 L 9.566406 -11.828125 L 11.695312 -10.296875 L 6.011719 -2.378906 C 3.972656 0.460938 3.621094 3.117188 6.671875 5.308594 Z M 6.671875 5.308594 "/></g></g></g><g fill="#aa627f" fill-opacity="1"><g transform="translate(102.095502, 337.898744)"><g/></g></g><g fill="#aa627f" fill-opacity="1"><g transform="translate(111.163936, 343.327809)"><g><path d="M 2.640625 1.378906 L 5.253906 2.742188 L 13.390625 -12.839844 L 10.78125 -14.207031 Z M 13.78125 -16.730469 C 14.8125 -16.191406 15.890625 -16.503906 16.445312 -17.566406 C 16.96875 -18.570312 16.613281 -19.632812 15.578125 -20.175781 C 14.546875 -20.714844 13.46875 -20.398438 12.941406 -19.394531 C 12.386719 -18.332031 12.746094 -17.269531 13.78125 -16.730469 Z M 13.78125 -16.730469 "/></g></g></g><g fill="#aa627f" fill-opacity="1"><g transform="translate(122.404255, 349.292866)"><g><path d="M 2.769531 1.097656 L 5.507812 2.179688 L 10.207031 -9.679688 C 12.519531 -10.679688 13.996094 -11.070312 15.679688 -10.402344 C 17.847656 -9.542969 18.269531 -7.878906 17.054688 -4.808594 L 13.09375 5.1875 L 15.835938 6.269531 L 19.9375 -4.085938 C 21.59375 -8.269531 20.910156 -11.117188 17.476562 -12.476562 C 15.25 -13.359375 13.074219 -12.792969 10.902344 -11.875 L 10.8125 -11.914062 L 11.5 -14.355469 L 9.242188 -15.25 Z M 2.769531 1.097656 "/></g></g></g><g fill="#aa627f" fill-opacity="1"><g transform="translate(144.443803, 357.486712)"><g/></g></g><g fill="#aa627f" fill-opacity="1"><g transform="translate(154.94641, 360.572681)"><g><path d="M 6.832031 1.695312 C 8.964844 2.089844 11.113281 1.335938 13.023438 0.273438 L 13.117188 0.292969 L 12.988281 2.410156 L 15.375 2.851562 L 17.347656 -7.78125 C 18.140625 -12.046875 16.882812 -15.210938 12.679688 -15.992188 C 9.910156 -16.503906 7.230469 -15.71875 5.449219 -14.992188 L 6.222656 -12.777344 C 7.761719 -13.445312 9.75 -14.03125 11.753906 -13.660156 C 14.589844 -13.132812 14.925781 -10.867188 14.511719 -8.636719 C 7.003906 -9.171875 3.375 -7.902344 2.679688 -4.144531 C 2.101562 -1.027344 3.933594 1.15625 6.832031 1.695312 Z M 8.089844 -0.476562 C 6.371094 -0.792969 5.183594 -1.839844 5.546875 -3.8125 C 5.960938 -6.039062 8.199219 -7.105469 14.15625 -6.726562 L 13.257812 -1.886719 C 11.292969 -0.703125 9.777344 -0.164062 8.089844 -0.476562 Z M 8.089844 -0.476562 "/></g></g></g><g fill="#aa627f" fill-opacity="1"><g transform="translate(176.587348, 364.146527)"><g/></g></g><g fill="#aa627f" fill-opacity="1"><g transform="translate(187.481347, 365.203991)"><g><path d="M 8.949219 8.046875 C 14.386719 8.015625 17.835938 5.179688 17.820312 1.910156 C 17.804688 -0.972656 15.722656 -2.253906 11.644531 -2.234375 L 8.210938 -2.214844 C 5.847656 -2.199219 5.132812 -2.972656 5.125 -4.109375 C 5.121094 -5.078125 5.601562 -5.664062 6.246094 -6.21875 C 7.027344 -5.835938 8 -5.613281 8.875 -5.617188 C 12.4375 -5.636719 15.273438 -8.015625 15.25 -11.773438 C 15.242188 -13.292969 14.652344 -14.585938 13.808594 -15.390625 L 17.402344 -15.410156 L 17.390625 -17.675781 L 11.269531 -17.644531 C 10.652344 -17.867188 9.777344 -18.089844 8.804688 -18.082031 C 5.246094 -18.0625 2.214844 -15.617188 2.234375 -11.765625 C 2.246094 -9.660156 3.390625 -7.984375 4.558594 -7.050781 L 4.558594 -6.921875 C 3.65625 -6.269531 2.59375 -5.097656 2.601562 -3.640625 C 2.609375 -2.25 3.296875 -1.3125 4.238281 -0.769531 L 4.238281 -0.636719 C 2.59375 0.4375 1.660156 1.867188 1.667969 3.359375 C 1.6875 6.402344 4.640625 8.070312 8.949219 8.046875 Z M 8.863281 -7.625 C 6.824219 -7.613281 5.097656 -9.222656 5.085938 -11.78125 C 5.070312 -14.371094 6.746094 -15.902344 8.816406 -15.914062 C 10.890625 -15.925781 12.582031 -14.378906 12.597656 -11.820312 C 12.609375 -9.265625 10.871094 -7.636719 8.863281 -7.625 Z M 9.359375 6.035156 C 6.183594 6.054688 4.269531 4.832031 4.257812 2.957031 C 4.253906 1.917969 4.765625 0.878906 6.023438 -0.03125 C 6.800781 0.15625 7.644531 0.25 8.289062 0.246094 L 11.335938 0.230469 C 13.664062 0.21875 14.929688 0.761719 14.941406 2.378906 C 14.949219 4.226562 12.726562 6.019531 9.359375 6.035156 Z M 9.359375 6.035156 "/></g></g></g><g fill="#aa627f" fill-opacity="1"><g transform="translate(209.5886, 364.711856)"><g><path d="M 2.957031 -0.34375 L 5.886719 -0.6875 L 4.574219 -11.910156 C 5.382812 -15.039062 7.0625 -16.277344 8.511719 -16.445312 C 9.21875 -16.527344 9.644531 -16.511719 10.25 -16.355469 L 10.496094 -18.992188 C 9.914062 -19.21875 9.359375 -19.25 8.585938 -19.160156 C 6.625 -18.929688 5.019531 -17.308594 4.058594 -14.949219 L 3.960938 -14.9375 L 3.332031 -18.089844 L 0.917969 -17.808594 Z M 2.957031 -0.34375 "/></g></g></g><g fill="#aa627f" fill-opacity="1"><g transform="translate(225.919102, 362.740923)"><g><path d="M 9.90625 -1.847656 C 12.242188 -2.386719 13.890625 -3.59375 15.179688 -4.921875 L 13.703125 -6.574219 C 12.636719 -5.433594 11.398438 -4.617188 9.726562 -4.230469 C 6.476562 -3.484375 3.699219 -5.304688 2.664062 -8.917969 L 14.214844 -11.578125 C 14.183594 -12 14.109375 -12.617188 13.964844 -13.246094 C 12.839844 -18.136719 9.652344 -20.726562 5.296875 -19.726562 C 1.320312 -18.808594 -1.636719 -14.476562 -0.359375 -8.921875 C 0.941406 -3.273438 5.363281 -0.800781 9.90625 -1.847656 Z M 2.15625 -10.996094 C 1.734375 -14.417969 3.429688 -16.871094 5.859375 -17.429688 C 8.539062 -18.046875 10.546875 -16.546875 11.335938 -13.109375 Z M 2.15625 -10.996094 "/></g></g></g><g fill="#aa627f" fill-opacity="1"><g transform="translate(247.344705, 357.553663)"><g><path d="M 6.738281 -2.039062 C 8.773438 -2.789062 10.234375 -4.539062 11.328125 -6.425781 L 11.421875 -6.460938 L 12.394531 -4.574219 L 14.671875 -5.417969 L 10.925781 -15.5625 C 9.421875 -19.632812 6.722656 -21.707031 2.714844 -20.226562 C 0.0703125 -19.25 -1.832031 -17.203125 -2.988281 -15.671875 L -1.191406 -14.160156 C -0.210938 -15.523438 1.195312 -17.042969 3.109375 -17.75 C 5.8125 -18.75 7.265625 -16.972656 8.050781 -14.84375 C 1.324219 -11.464844 -1.144531 -8.519531 0.179688 -4.933594 C 1.28125 -1.957031 3.972656 -1.019531 6.738281 -2.039062 Z M 6.707031 -4.546875 C 5.066406 -3.941406 3.511719 -4.230469 2.816406 -6.113281 C 2.03125 -8.238281 3.410156 -10.300781 8.722656 -13.023438 L 10.425781 -8.40625 C 9.34375 -6.382812 8.316406 -5.140625 6.707031 -4.546875 Z M 6.707031 -4.546875 "/></g></g></g><g fill="#aa627f" fill-opacity="1"><g transform="translate(267.972924, 349.535048)"><g><path d="M 7.804688 -3.429688 C 8.761719 -3.910156 9.660156 -4.71875 10.414062 -5.457031 L 8.90625 -7.167969 C 8.488281 -6.703125 7.863281 -6.136719 7.3125 -5.863281 C 5.488281 -4.953125 4.332031 -5.75 3.359375 -7.6875 L -1.027344 -16.464844 L 3.230469 -18.59375 L 2.160156 -20.734375 L -2.097656 -18.609375 L -4.3125 -23.039062 L -6.511719 -21.9375 L -4.617188 -17.347656 L -7.007812 -15.972656 L -6.007812 -13.972656 L -3.660156 -15.148438 L 0.695312 -6.429688 C 2.257812 -3.300781 4.445312 -1.75 7.804688 -3.429688 Z M 7.804688 -3.429688 "/></g></g></g><g fill="#aa627f" fill-opacity="1"><g transform="translate(282.331602, 342.298782)"><g><path d="M 8.695312 -5.101562 C 10.707031 -6.398438 11.847656 -8.09375 12.609375 -9.78125 L 10.660156 -10.835938 C 10.046875 -9.398438 9.15625 -8.207031 7.710938 -7.28125 C 4.910156 -5.472656 1.679688 -6.242188 -0.519531 -9.296875 L 9.445312 -15.714844 C 9.269531 -16.101562 8.992188 -16.652344 8.640625 -17.199219 C 5.921875 -21.417969 2.046875 -22.773438 -1.710938 -20.351562 C -5.140625 -18.140625 -6.449219 -13.0625 -3.363281 -8.269531 C -0.226562 -3.398438 4.773438 -2.574219 8.695312 -5.101562 Z M -1.703125 -11.074219 C -3.261719 -14.152344 -2.5 -17.03125 -0.402344 -18.382812 C 1.910156 -19.871094 4.304688 -19.144531 6.21875 -16.175781 Z M -1.703125 -11.074219 "/></g></g></g><g fill="#aa627f" fill-opacity="1"><g transform="translate(300.467322, 330.180696)"><g><path d="M 2.3125 -1.878906 L 4.597656 -3.734375 L -2.527344 -12.507812 C -3.519531 -15.578125 -2.765625 -17.527344 -1.632812 -18.445312 C -1.082031 -18.894531 -0.714844 -19.109375 -0.117188 -19.300781 L -1.324219 -21.660156 C -1.9375 -21.539062 -2.425781 -21.265625 -3.027344 -20.777344 C -4.558594 -19.53125 -5.042969 -17.300781 -4.589844 -14.792969 L -4.667969 -14.730469 L -6.886719 -17.054688 L -8.773438 -15.523438 Z M 2.3125 -1.878906 "/></g></g></g><g fill="#aa627f" fill-opacity="1"><g transform="translate(312.753139, 319.906186)"><g/></g></g><g fill="#aa627f" fill-opacity="1"><g transform="translate(320.841385, 312.41841)"><g><path d="M 7.558594 2.585938 L 9.484375 0.355469 L 4.972656 -3.535156 L 2.601562 -5.496094 C 4.617188 -5.851562 6.28125 -6.640625 7.320312 -7.839844 C 9.960938 -10.90625 9.6875 -15.890625 5.125 -19.824219 C 1.03125 -23.355469 -3.273438 -23.816406 -6.234375 -20.386719 C -7.566406 -18.839844 -7.972656 -16.582031 -8.03125 -14.535156 L -8.09375 -14.464844 L -9.78125 -15.578125 L -11.367188 -13.738281 Z M 5.136719 -9.082031 C 4.375 -8.199219 2.992188 -7.339844 0.929688 -7.023438 L -6.058594 -13.050781 C -6.140625 -15.386719 -5.785156 -17.089844 -4.8125 -18.21875 C -2.632812 -20.742188 0.199219 -20.011719 3.140625 -17.472656 C 6.449219 -14.617188 7.042969 -11.285156 5.136719 -9.082031 Z M 5.136719 -9.082031 "/></g></g></g><g fill="#aa627f" fill-opacity="1"><g transform="translate(336.489516, 293.799005)"><g><path d="M 5.675781 -8.015625 C 8.011719 -11.632812 7.273438 -16.695312 2.375 -19.855469 C -2.546875 -23.035156 -7.492188 -21.644531 -9.828125 -18.023438 C -12.164062 -14.40625 -11.398438 -9.324219 -6.476562 -6.148438 C -1.578125 -2.984375 3.339844 -4.394531 5.675781 -8.015625 Z M 3.609375 -9.347656 C 1.957031 -6.792969 -1.40625 -6.535156 -4.808594 -8.730469 C -8.207031 -10.925781 -9.414062 -14.132812 -7.761719 -16.691406 C -6.113281 -19.246094 -2.675781 -19.496094 0.726562 -17.300781 C 4.125 -15.105469 5.257812 -11.90625 3.609375 -9.347656 Z M 3.609375 -9.347656 "/></g></g></g><g fill="#aa627f" fill-opacity="1"><g transform="translate(349.490233, 273.478175)"><g><path d="M 2.332031 -5.269531 L 3.734375 -8.4375 L -3.886719 -14.503906 C -5.242188 -15.597656 -6.605469 -16.59375 -8.078125 -17.667969 L -8.011719 -17.816406 C -6.214844 -17.480469 -4.601562 -17.121094 -2.910156 -16.867188 L 6.800781 -15.367188 L 8.242188 -18.625 L -5.921875 -30.0625 L -7.046875 -27.515625 L 1.199219 -21.03125 C 2.582031 -19.996094 3.902344 -19.058594 5.253906 -18.035156 L 5.203125 -17.914062 C 3.523438 -18.199219 1.914062 -18.484375 0.203125 -18.78125 L -10.207031 -20.378906 L -11.371094 -17.746094 L -3.175781 -11.144531 C -1.851562 -10.0625 -0.511719 -9.078125 0.839844 -8.054688 L 0.773438 -7.90625 C -0.867188 -8.28125 -2.460938 -8.597656 -4.144531 -8.953125 L -14.503906 -10.667969 L -15.722656 -7.914062 Z M 2.332031 -5.269531 "/></g></g></g><g fill="#aa627f" fill-opacity="1"><g transform="translate(361.196, 245.458695)"><g><path d="M 3.046875 -9.605469 C 3.675781 -11.917969 3.386719 -13.945312 2.824219 -15.707031 L 0.667969 -15.183594 C 1.171875 -13.707031 1.308594 -12.226562 0.859375 -10.570312 C -0.015625 -7.351562 -2.929688 -5.761719 -6.605469 -6.558594 L -3.5 -17.996094 C -3.886719 -18.167969 -4.464844 -18.390625 -5.089844 -18.5625 C -9.933594 -19.878906 -13.71875 -18.289062 -14.890625 -13.976562 C -15.960938 -10.039062 -13.535156 -5.386719 -8.035156 -3.894531 C -2.441406 -2.375 1.824219 -5.109375 3.046875 -9.605469 Z M -8.675781 -7.089844 C -11.894531 -8.332031 -13.253906 -10.984375 -12.601562 -13.390625 C -11.878906 -16.042969 -9.613281 -17.105469 -6.207031 -16.179688 Z M -8.675781 -7.089844 "/></g></g></g><g fill="#aa627f" fill-opacity="1"><g transform="translate(366.558409, 224.310866)"><g><path d="M 0.460938 -2.941406 L 0.917969 -5.855469 L -10.246094 -7.601562 C -13.042969 -9.21875 -13.785156 -11.171875 -13.558594 -12.613281 C -13.449219 -13.316406 -13.320312 -13.722656 -13.007812 -14.261719 L -15.480469 -15.207031 C -15.851562 -14.707031 -16.035156 -14.179688 -16.15625 -13.410156 C -16.460938 -11.460938 -15.328125 -9.480469 -13.3125 -7.917969 L -13.328125 -7.824219 L -16.535156 -8.0625 L -16.910156 -5.664062 Z M 0.460938 -2.941406 "/></g></g></g></svg>